<svg xmlns="http://www.w3.org/2000/svg" viewBox="0 0 187.48 150">
<g id="Capa_2" data-name="Capa 2"><g id="Capa_1-2" data-name="Capa 1"><path d="M36.41,149.91c-7.23.43-14.24-.65-20.59-4.24-10.69-6-14.75-16-15.68-27.61a77.63,77.63,0,0,1-.09-7.78c.08-4.5,1.7-6.3,6.09-6.47,3.82-.15,7.66-.14,11.48,0s6,2.32,6.29,6.19c.18,2.73.06,5.47.24,8.2.42,6.33,4,9.8,10.11,10.1,7.81.37,12.33-2.62,13.22-9.17,1.08-8.07-.63-15.48-6-21.85A133.67,133.67,0,0,0,25.42,81.53C17.48,74.81,9.86,67.66,5.19,58.13-1.11,45.27-1.33,31.92,4,18.81,8.79,7,18.71,1.65,31,.54a53.56,53.56,0,0,1,15.1.58A32.48,32.48,0,0,1,72.59,37.48c-.41,3.24-2.29,4.91-5.46,5-4.23.09-8.47.08-12.71,0-3.18-.07-5.1-1.69-5.41-5-.19-2-.31-4.09-.56-6.12A10.07,10.07,0,0,0,38.72,22c-6.8-.48-11.32,2.18-12.43,8-1.23,6.54-1,13,2.74,19,4.16,6.73,9.85,12,15.7,17.16C54.15,74.53,64,82.54,69.11,94.52a46.73,46.73,0,0,1,.09,37.84c-4.85,11.33-14.5,16.2-26.24,17.52A59.61,59.61,0,0,1,36.41,149.91Z"/><path d="M114.78,120.87V5.41A5.41,5.41,0,0,0,109.37,0H97.77a5.41,5.41,0,0,0-5.4,5.41V143.28a5.4,5.4,0,0,0,5.4,5.4h57a5.41,5.41,0,0,0,5.41-5.4v-11.6a5.41,5.41,0,0,0-5.41-5.41H120.19A5.41,5.41,0,0,1,114.78,120.87Z"/><path d="M187.48,12.69V4.8a3.71,3.71,0,0,0-3.71-3.71H142a3.71,3.71,0,0,0-3.71,3.71v91A3.71,3.71,0,0,0,142,99.49h41.78a3.71,3.71,0,0,0,3.71-3.71V89a3.71,3.71,0,0,0-3.71-3.71H157.3a3.71,3.71,0,0,1-3.71-3.7V50.72A3.71,3.71,0,0,1,157.3,47H175a3.71,3.71,0,0,0,3.71-3.71V35.41A3.71,3.71,0,0,0,175,31.7H157.3a3.71,3.71,0,0,1-3.71-3.7V20.11a3.71,3.71,0,0,1,3.71-3.71h26.47A3.71,3.71,0,0,0,187.48,12.69Z"/></g></g></svg>