<?xml version="1.0" encoding="UTF-8" standalone="no"?>
<svg
   viewBox="0 0 187.58314 179.05904"
   version="1.1"
   id="svg3"
   sodipodi:docname="logo.svg"
   width="187.58313"
   height="179.05904"
   xmlns:inkscape="http://www.inkscape.org/namespaces/inkscape"
   xmlns:sodipodi="http://sodipodi.sourceforge.net/DTD/sodipodi-0.dtd"
   xmlns="http://www.w3.org/2000/svg"
   xmlns:svg="http://www.w3.org/2000/svg">
  <defs
     id="defs3" />
  <sodipodi:namedview
     id="namedview3"
     pagecolor="#ffffff"
     bordercolor="#000000"
     borderopacity="0.25"
     inkscape:showpageshadow="2"
     inkscape:pageopacity="0.0"
     inkscape:pagecheckerboard="0"
     inkscape:deskcolor="#d1d1d1">
    <inkscape:page
       x="0"
       y="0"
       width="187.58315"
       height="179.05904"
       id="page3"
       margin="0"
       bleed="0"
       inkscape:export-filename="logo.png"
       inkscape:export-xdpi="96"
       inkscape:export-ydpi="96" />
  </sodipodi:namedview>
  <path
     d="m 132.13598,59.932951 c 5.55,0 11.1,0.07 16.64,0 a 5.15,5.15 0 0 1 5.17,2.81 q 8.37,14.7 16.94,29.26 a 4.63,4.63 0 0 1 0.06,5.19 q -8.72,14.940009 -17.33,30.000009 c -1.08,1.88 -2.68,2.38 -4.65,2.38 -11.23,0 -22.45,0 -33.68,0 a 5.28,5.28 0 0 1 -5,-3.08 q -8.22,-14.42 -16.600003,-28.640009 a 5.75,5.75 0 0 1 0.08,-6.6 q 8.200003,-13.86 16.080003,-27.92 a 6,6 0 0 1 6,-3.45 c 5.46,0.18 10.88,0.05 16.29,0.05 z"
     id="path3"
     style="fill:#000000" />
  <path
     d="m 62.466509,19.895075 c 5.55,0 11.100005,0.07 16.640005,0 a 5.15,5.15 0 0 1 5.17,2.81 q 8.37,14.7 16.939996,29.26 a 4.63,4.63 0 0 1 0.06,5.19 Q 92.556514,72.095077 83.946514,87.155077 c -1.08,1.88 -2.68,2.38 -4.65,2.38 -11.230005,0 -22.450005,0 -33.680008,0 a 5.28,5.28 0 0 1 -5,-3.08 q -8.22,-14.42 -16.599999,-28.640002 a 5.75,5.75 0 0 1 0.08,-6.6 q 8.199999,-13.86 16.079999,-27.92 a 6,6 0 0 1 6,-3.45 c 5.460003,0.18 10.880003,0.05 16.290003,0.05 z"
     id="path3-6"
     style="fill:#000000;fill-opacity:1" />
  <path
     d="m 62.429609,100.68886 c 5.55,0 11.100005,0.07 16.640005,0 a 5.15,5.15 0 0 1 5.17,2.81 q 8.37,14.7 16.939996,29.26001 a 4.63,4.63 0 0 1 0.06,5.19 q -8.719996,14.94001 -17.329996,30.00001 c -1.08,1.88 -2.68,2.38 -4.65,2.38 -11.230005,0 -22.450005,0 -33.680008,0 a 5.28,5.28 0 0 1 -5,-3.08 q -8.22,-14.42 -16.599999,-28.64001 a 5.75,5.75 0 0 1 0.08,-6.6 q 8.199999,-13.86001 16.079999,-27.92001 a 6,6 0 0 1 6,-3.45 c 5.460003,0.18 10.880003,0.05 16.290003,0.05 z"
     id="path3-6-5"
     style="fill:#000000;fill-opacity:1" />
</svg>
